<?xml version="1.0" encoding="UTF-8"?>
<svg width="239px" height="150px" viewBox="0 0 239 150" version="1.1" xmlns="http://www.w3.org/2000/svg" xmlns:xlink="http://www.w3.org/1999/xlink">
    <!-- Generator: Sketch 53.2 (72643) - https://sketchapp.com -->
    <title>puzzle</title>
    <desc>Created with Sketch.</desc>
    <g id="Page-1" stroke="none" stroke-width="1" fill="none" fill-rule="evenodd">
        <g id="puzzle" fill="#7D7F90" fill-rule="nonzero">
            <path d="M22.3992528,97.48875 C27.4390717,97.48875 32.9270012,96.1393269 37.1829289,93.4407692 C44.4626386,88.8305769 44.7983904,94.1154808 44.7983904,110.644615 L44.7983904,150 L83.9972699,150 C100.460627,150 105.724386,149.662788 101.132706,142.354038 C98.4446759,138.081058 97.1008048,132.571154 97.1008048,127.51125 C97.1008048,115.142308 107.18027,105.0225 119.5,105.0225 C131.81973,105.0225 141.899195,115.142308 141.899195,127.51125 C141.899195,132.571154 140.555324,138.081058 137.867294,142.354038 C133.275614,149.662788 138.42736,150 155.00273,150 L194.20161,150 L194.20161,110.644615 C194.20161,94.1154808 194.537649,88.8305769 201.817359,93.4407692 C206.073287,96.1393269 211.560784,97.48875 216.600805,97.48875 C228.920247,97.48875 239,87.3689423 239,75 C239,62.6310577 228.920247,52.51125 216.600805,52.51125 C211.449059,52.51125 206.073287,53.8606731 201.817359,56.5592308 C194.537649,61.1694231 194.20161,55.8845192 194.20161,39.3553846 L194.20161,0 L155.00273,0 C138.539373,0 133.275614,0.337335577 137.867294,7.64619231 C140.555324,11.9190577 141.899195,17.4287885 141.899195,22.48875 C141.899195,34.8576923 131.81973,44.9775 119.5,44.9775 C107.18027,44.9775 97.1008048,34.8576923 97.1008048,22.48875 C97.1008048,17.4287885 98.4446759,11.9190577 101.132706,7.64619231 C105.724386,0.337335577 100.57264,0 83.9972699,0 L44.7983904,0 L44.7983904,39.3553846 C44.7983904,55.8845192 44.4626386,61.1694231 37.1829289,56.5592308 C32.9270012,53.8606731 27.4390717,52.51125 22.3992528,52.51125 C10.0796666,52.51125 0,62.6310577 0,75 C0,87.3689423 10.0796666,97.48875 22.3992528,97.48875 Z" id="Path"></path>
        </g>
    </g>
</svg>