<svg width="32" height="33" viewBox="0 0 32 33" fill="none" xmlns="http://www.w3.org/2000/svg">
<path fill-rule="evenodd" clip-rule="evenodd" d="M13.5132 3.5L13.5814 3.5C14.0823 3.5 14.4884 3.90607 14.4884 4.40698C14.4884 4.90789 14.0823 5.31395 13.5814 5.31395C11.2755 5.31395 9.63727 5.31588 8.39451 5.48296C7.17785 5.64654 6.47688 5.9533 5.96509 6.46509C5.4533 6.97688 5.14654 7.67785 4.98296 8.89451C4.81588 10.1373 4.81395 11.7755 4.81395 14.0814C4.81395 14.5823 4.40789 14.9884 3.90698 14.9884C3.40607 14.9884 3 14.5823 3 14.0814L3 14.0132C2.99998 11.7908 2.99997 10.0305 3.18519 8.65281C3.37581 7.23499 3.77744 6.08743 4.68243 5.18243C5.58743 4.27744 6.73499 3.87581 8.15281 3.68519C9.53046 3.49997 11.2908 3.49998 13.5132 3.5ZM23.6055 5.48296C22.3627 5.31588 20.7245 5.31395 18.4186 5.31395C17.9177 5.31395 17.5116 4.90789 17.5116 4.40698C17.5116 3.90607 17.9177 3.5 18.4186 3.5L18.4868 3.5C20.7092 3.49998 22.4695 3.49997 23.8472 3.68519C25.265 3.87581 26.4126 4.27744 27.3175 5.18243C28.2225 6.08743 28.6242 7.23499 28.8148 8.65281C29 10.0305 29 11.7908 29 14.0132V14.0814C29 14.5823 28.5939 14.9884 28.093 14.9884C27.5921 14.9884 27.186 14.5823 27.186 14.0814C27.186 11.7755 27.1841 10.1373 27.017 8.89451C26.8534 7.67785 26.5467 6.97688 26.0349 6.46509C25.5231 5.9533 24.8221 5.64654 23.6055 5.48296ZM3.90698 18.0116C4.40789 18.0116 4.81395 18.4177 4.81395 18.9186C4.81395 21.2245 4.81588 22.8627 4.98296 24.1055C5.14654 25.3221 5.4533 26.0231 5.96509 26.5349C6.47688 27.0467 7.17785 27.3534 8.39451 27.517C9.63727 27.6841 11.2755 27.686 13.5814 27.686C14.0823 27.686 14.4884 28.0921 14.4884 28.593C14.4884 29.0939 14.0823 29.5 13.5814 29.5H13.5132C11.2908 29.5 9.53046 29.5 8.15281 29.3148C6.73499 29.1242 5.58743 28.7225 4.68243 27.8175C3.77744 26.9126 3.37581 25.765 3.18519 24.3472C2.99997 22.9695 2.99998 21.2092 3 18.9868L3 18.9186C3 18.4177 3.40607 18.0116 3.90698 18.0116ZM28.093 18.0116C28.5939 18.0116 29 18.4177 29 18.9186V18.9868C29 21.2092 29 22.9695 28.8148 24.3472C28.6242 25.765 28.2225 26.9126 27.3175 27.8175C26.4126 28.7225 25.265 29.1242 23.8472 29.3148C22.4695 29.5 20.7092 29.5 18.4868 29.5H18.4186C17.9177 29.5 17.5116 29.0939 17.5116 28.593C17.5116 28.0921 17.9177 27.686 18.4186 27.686C20.7245 27.686 22.3627 27.6841 23.6055 27.517C24.8221 27.3534 25.5231 27.0467 26.0349 26.5349C26.5467 26.0231 26.8534 25.3221 27.017 24.1055C27.1841 22.8627 27.186 21.2245 27.186 18.9186C27.186 18.4177 27.5921 18.0116 28.093 18.0116Z" fill="#F9F9F9"/>
</svg>
