<svg width="24" height="24" viewBox="0 0 24 24" fill="none" xmlns="http://www.w3.org/2000/svg">
<mask id="path-1-inside-1_4663_688" fill="white">
<rect x="1" y="1" width="22" height="22" rx="1"/>
</mask>
<rect x="1" y="1" width="22" height="22" rx="1" stroke="#7D7F90" stroke-width="3" stroke-dasharray="2 2" mask="url(#path-1-inside-1_4663_688)"/>
<path d="M10.1807 14H14V8.48679H12.8541C12.31 8.48679 11.8673 8.04411 11.8673 7.5C11.8673 6.95589 12.31 6.51321 12.8541 6.51321H14V1H1V14H4.81933C5.10056 15.2201 6.19577 16.1327 7.50006 16.1327C8.80429 16.1327 9.89944 15.2201 10.1807 14ZM6.51321 13.382V12.2361H2.76391V2.76391H12.2361V4.81933C11.016 5.10056 10.1034 6.19577 10.1034 7.5C10.1034 8.80429 11.016 9.8995 12.2361 10.1807V12.2361H8.48679V13.382C8.48679 13.9261 8.04411 14.3688 7.5 14.3688C6.95589 14.3688 6.51321 13.9261 6.51321 13.382Z" fill="#2EA6E2"/>
</svg>
