<svg width="25" height="24" viewBox="0 0 25 24" fill="none" xmlns="http://www.w3.org/2000/svg">
<path d="M4.34453 3.84453C3.21849 4.97056 3.21849 6.79623 4.34453 7.92226L5.93227 9.51C5.94419 9.49622 5.95669 9.48276 5.96978 9.46967L9.96978 5.46967C9.98284 5.45662 9.99625 5.44415 10.01 5.43226L8.42226 3.84453C7.29623 2.71849 5.47056 2.71849 4.34453 3.84453Z" fill="#F9F9F9"/>
<path d="M11.0679 6.49012C11.056 6.50386 11.0435 6.51728 11.0304 6.53033L7.03044 10.5303C7.01735 10.5434 7.0039 10.5559 6.99011 10.5678L16.5777 20.1555C17.7038 21.2815 19.5294 21.2815 20.6555 20.1555C21.7815 19.0294 21.7815 17.2038 20.6555 16.0777L11.0679 6.49012Z" fill="#F9F9F9"/>
<path d="M16.6 2.30719C16.761 1.8976 17.3385 1.8976 17.4994 2.30719L17.9298 3.40247C17.979 3.52752 18.0776 3.62651 18.2022 3.67583L19.2934 4.1078C19.7015 4.26934 19.7015 4.849 19.2934 5.01054L18.2022 5.44252C18.0776 5.49184 17.979 5.59082 17.9298 5.71587L17.4995 6.81115C17.3385 7.22074 16.761 7.22074 16.6 6.81116L16.1697 5.71587C16.1205 5.59082 16.0219 5.49184 15.8973 5.44252L14.8061 5.01054C14.398 4.849 14.398 4.26934 14.8061 4.1078L15.8973 3.67583C16.0219 3.62651 16.1205 3.52752 16.1697 3.40247L16.6 2.30719Z" fill="#F9F9F9"/>
<path d="M20.4672 9.12945C20.6281 8.71987 21.2057 8.71987 21.3666 9.12945L21.5235 9.5288C21.5727 9.65385 21.6713 9.75284 21.7959 9.80215L22.1937 9.95965C22.6018 10.1212 22.6018 10.7009 22.1937 10.8624L21.7959 11.0199C21.6713 11.0692 21.5727 11.1682 21.5235 11.2932L21.3666 11.6926C21.2057 12.1022 20.6281 12.1022 20.4672 11.6926L20.3103 11.2932C20.2611 11.1682 20.1625 11.0692 20.0379 11.0199L19.64 10.8624C19.232 10.7009 19.232 10.1212 19.64 9.95965L20.0379 9.80215C20.1625 9.75284 20.2611 9.65385 20.3103 9.5288L20.4672 9.12945Z" fill="#F9F9F9"/>
<path d="M5.6332 15.3072C5.79414 14.8976 6.37167 14.8976 6.53261 15.3072L6.68953 15.7065C6.73867 15.8316 6.83729 15.9306 6.96188 15.9799L7.35975 16.1374C7.76783 16.2989 7.76783 16.8786 7.35975 17.0401L6.96188 17.1976C6.83729 17.2469 6.73867 17.3459 6.68953 17.471L6.53261 17.8703C6.37167 18.2799 5.79414 18.2799 5.6332 17.8703L5.47628 17.471C5.42714 17.3459 5.32852 17.2469 5.20393 17.1976L4.80606 17.0401C4.39798 16.8786 4.39798 16.2989 4.80606 16.1374L5.20393 15.9799C5.32852 15.9306 5.42714 15.8316 5.47628 15.7065L5.6332 15.3072Z" fill="#F9F9F9"/>
</svg>
