<svg width="133" height="90" viewBox="0 0 133 90" fill="none" xmlns="http://www.w3.org/2000/svg">
<path d="M114.762 25.3275L114.582 25.0578L108.485 18.7045C108.126 18.1665 108.362 17.3799 109.02 17.1821C109.945 16.9004 110.824 16.4044 111.58 15.6866C114.121 13.2622 114.235 9.27185 111.807 6.85039C109.494 4.31355 105.506 4.24911 102.968 6.68257C102.217 7.40181 101.682 8.25891 101.362 9.17146C101.133 9.81878 100.337 10.0196 99.8169 9.63747L93.7423 3.25865L93.4786 3.06835C93.0965 2.70123 92.4821 2.70423 92.085 3.08783L85.0379 9.84725C84.6004 9.87572 84.1703 9.63298 84.037 9.16696C83.4376 7.09613 81.7159 5.3085 78.794 4.7436C78.4943 4.68516 78.1766 4.68216 77.8739 4.7361C71.8922 5.788 70.3518 12.008 73.5659 15.3825C74.2462 16.0972 75.0659 16.6022 75.9439 16.8989C76.4174 17.0592 76.6287 17.5417 76.5433 17.9942L69.4557 24.7941C69.0437 25.1882 69.0227 25.8265 69.4048 26.2206L75.8136 32.9021L75.9275 32.9905L75.9664 33.031C76.5103 33.6004 77.4604 33.2992 77.6596 32.517C78.247 30.2589 80.1141 28.2435 83.2293 27.6306C83.8122 27.5887 84.3981 27.6261 84.969 27.746C86.2801 28.1041 87.3215 28.7305 88.0962 29.5202C88.8484 30.3308 89.4298 31.3992 89.725 32.7268C89.8224 33.2992 89.8359 33.8851 89.767 34.4695C89.0118 37.5547 86.9139 39.3289 84.6318 39.8114C83.8437 39.9792 83.499 40.9142 84.0445 41.4806L84.0834 41.5211L84.1673 41.641L90.5521 48.3419C90.9312 48.7405 91.5711 48.7465 91.9801 48.3554L99.0902 41.5765C99.5472 41.5121 100.019 41.7474 100.159 42.2268C100.418 43.1214 100.885 43.9605 101.569 44.6723C104.795 48.0363 111.073 46.7761 112.395 40.8483C112.461 40.5456 112.474 40.2279 112.426 39.9283C111.993 36.9838 110.283 35.1812 108.244 34.4904C107.786 34.3346 107.556 33.8941 107.61 33.4595L114.677 26.7241C115.075 26.345 115.105 25.7321 114.759 25.3305L114.762 25.3275Z" fill="#2EA6E2"/>
<path d="M82.3827 87.442H82.4367L82.5835 87.463L91.8378 87.5034C92.3893 87.5064 92.8343 87.0464 92.8373 86.4815L92.8777 76.6578C93.1475 76.2862 93.6419 76.1063 94.0855 76.3401C94.9081 76.7701 95.8386 77.0174 96.8246 77.0174C101.485 77.0234 104.927 71.623 101.567 66.5598C101.398 66.3051 101.175 66.0744 100.927 65.899C98.5028 64.1728 96.0229 64.1564 94.111 65.1498C93.6794 65.3716 93.2059 65.2277 92.9287 64.8906L92.9676 55.1283C92.9721 54.5799 92.5496 54.1304 92.0206 54.1064L91.7 54.045L82.8952 54.039C82.2599 53.9266 81.8553 53.2118 82.17 52.599C82.606 51.7374 82.8577 50.7589 82.8622 49.719C82.8772 46.2052 80.0796 43.3581 76.6497 43.4301C73.2168 43.3387 70.4073 46.1722 70.4028 49.6875C70.4058 50.7274 70.647 51.7074 71.0861 52.572C71.3947 53.1848 70.9857 53.8996 70.3488 54.009L61.5411 53.9685L61.2234 54.027C60.8458 54.0435 60.5281 54.2817 60.3708 54.6159C60.4247 54.7687 60.4577 54.935 60.4577 55.1058L60.4412 65.1858L59.8898 65.0764C59.6396 65.1858 59.3533 65.2053 59.0791 65.0599L58.9083 64.985C58.6116 64.988 58.3059 65.009 57.9898 65.0539L57.9089 65.0644L57.8279 65.0509C57.4803 64.9865 57.1701 64.9311 56.8704 64.9311C54.0459 64.937 51.7069 67.1173 51.3532 69.9508C51.3218 70.195 51.3008 70.4408 51.3008 70.6955C51.3008 71.7129 51.5735 72.7993 52.1609 73.8992C52.2867 74.1374 52.4141 74.3787 52.5714 74.6184C52.7078 74.8222 52.8861 75.0065 53.0854 75.1459C54.3831 76.0644 55.6552 76.433 56.8405 76.436C57.1581 76.433 57.4683 76.4075 57.7725 76.3581L57.8534 76.3416L57.9343 76.3551C58.1921 76.397 58.3929 76.4375 58.5787 76.46C58.7345 76.3955 58.8933 76.3311 59.0447 76.2502C59.3653 76.0839 59.7115 76.1378 59.9782 76.3176L60.4187 76.2292L60.4022 86.462C60.4022 86.5924 60.3798 86.7212 60.3498 86.8456C60.5116 87.1857 60.8428 87.4255 61.2354 87.4255L70.4927 87.4315L70.635 87.412H70.6905C71.4786 87.415 71.9177 86.5204 71.4921 85.8327C70.2709 83.8472 70.1136 81.1066 71.8308 78.4334C72.2039 77.9809 72.6369 77.5883 73.1179 77.2586C74.2852 76.5604 75.4585 76.2442 76.5658 76.2322C77.6717 76.2502 78.8419 76.5739 80.0047 77.2751C80.4827 77.6063 80.9158 78.0019 81.2874 78.4574C82.9911 81.1381 82.8158 83.8787 81.5841 85.8596C81.16 86.5444 81.5931 87.4405 82.3812 87.4405L82.3827 87.442Z" fill="#7D7F90"/>
<path d="M49.6229 52.7578L49.6019 52.8118L49.5929 52.8313L49.5405 53.0425C49.5375 53.2643 49.7188 53.4891 49.9421 53.537L58.6839 53.522C58.8098 53.522 58.9147 53.5565 59.024 53.5835V53.5805C59.3312 53.594 59.6114 53.7003 59.8422 53.8742L59.8976 53.5984L59.9381 43.7747C60.2093 43.4031 60.7023 43.2263 61.1458 43.4556C61.967 43.8856 62.8975 44.1329 63.8849 44.1329C68.5481 44.1389 71.9885 38.7385 68.629 33.6753C68.4582 33.4206 68.2379 33.1913 67.9892 33.0145C65.5662 31.2883 63.0833 31.2718 61.1698 32.2653C60.7412 32.4871 60.2632 32.3432 59.989 32.0061L60.031 22.2438C60.031 21.6954 59.6099 21.2458 59.081 21.2219L58.7603 21.1604L49.9555 21.1544C49.3187 21.042 48.9141 20.3273 49.2273 19.7144C49.6663 18.8528 49.9166 17.8729 49.9226 16.8345C49.9391 13.3191 47.14 10.4736 43.7086 10.5455C40.2787 10.4556 37.4676 13.2892 37.4631 16.803C37.4631 17.8444 37.7089 18.8244 38.1464 19.6875C38.4551 20.3003 38.0475 21.0151 37.4107 21.1215L28.6014 21.084L28.2822 21.1424C27.7518 21.1649 27.3292 21.6115 27.3292 22.1629L27.3202 31.9251C27.04 32.2593 26.565 32.4046 26.138 32.1769C24.2305 31.1759 21.7461 31.1789 19.3156 32.8946C19.0669 33.0685 18.8451 33.2992 18.6713 33.5524C15.2848 38.5962 18.7013 44.013 23.3629 44.031C24.3503 44.037 25.2824 43.7957 26.1035 43.3672C26.55 43.1379 27.0445 43.3192 27.3097 43.6938L27.3023 53.5175C27.3023 53.6404 27.3307 53.7558 27.3697 53.8652C27.5989 53.6958 27.8777 53.5925 28.1833 53.579V53.582C28.2912 53.555 28.3991 53.5205 28.5235 53.5205L37.2653 53.5355C37.4871 53.4876 37.6684 53.2628 37.6639 53.044L37.613 52.8298L37.6025 52.8058L37.5905 52.7818L37.5785 52.7518C37.1335 51.8498 36.8757 50.8323 36.8682 49.755V49.704C36.8682 49.0222 36.9971 48.3884 37.1664 47.7935C37.9696 45.0079 40.4585 42.9416 43.4568 42.9416L43.6157 42.9446L43.749 42.9416C46.7444 42.9416 49.2348 45.0079 50.0379 47.7935C50.2073 48.3884 50.3346 49.0222 50.3346 49.707V49.7205C50.3346 50.8144 50.0724 51.8453 49.6229 52.7578Z" fill="#7D7F90"/>
<path d="M52.6579 65.493C53.8087 64.465 55.3101 63.8357 56.9584 63.8312L56.9614 64.3242V63.8312C57.3615 63.8312 57.7121 63.9001 58.0373 63.9571C58.3699 63.9136 58.7011 63.8851 59.0322 63.8821C59.1955 63.8821 59.3589 63.8896 59.5237 63.9061L59.5357 55.0159C59.5357 54.7342 59.3364 54.5319 59.1011 54.505L59.0682 54.496L58.9918 54.493L58.9183 54.466L58.77 54.436L49.9203 54.451L49.8768 54.4435C49.1845 54.3177 48.708 53.7483 48.6436 53.0815L48.6196 52.9481C48.6196 52.7383 48.6691 52.5255 48.768 52.3188H48.7635L48.7829 52.2678L48.7949 52.2513C49.1875 51.4587 49.4138 50.5731 49.4138 49.6261V49.6126C49.4138 49.0567 49.3104 48.5187 49.1561 47.9808C48.4638 45.5938 46.351 43.8571 43.8351 43.8571L43.7063 43.8601H43.6778L43.5444 43.8571C42.3607 43.8571 41.2743 44.2512 40.3753 44.906C39.3623 45.6447 38.5891 46.7146 38.225 47.9808C38.1351 48.2865 38.0722 48.5937 38.0272 48.9038C37.9927 49.1361 37.9643 49.3698 37.9643 49.6081V49.6276C37.9643 50.5746 38.192 51.4602 38.5876 52.2498L38.5996 52.2723L38.6086 52.2963L38.6206 52.3263L38.6161 52.3292C38.709 52.53 38.7599 52.7443 38.7599 52.9526L38.7375 53.0725C38.6775 53.7438 38.198 54.3192 37.5043 54.445L37.4623 54.4525L28.6126 54.4375L28.5406 54.451L28.4627 54.4675L28.3908 54.4945L28.3129 54.4975C28.0641 54.508 27.8454 54.7222 27.8439 55.0144L27.8604 64.958L27.745 65.1004C27.4678 65.4315 27.0602 65.6443 26.6092 65.6443C26.3844 65.6443 26.1506 65.5904 25.9394 65.478C25.1857 65.0869 24.342 64.8651 23.44 64.8651C22.2487 64.8651 20.9526 65.2502 19.646 66.1792C19.4482 66.3186 19.2654 66.5029 19.132 66.7067C18.2374 68.0478 17.8613 69.3874 17.8613 70.6281C17.8613 73.8182 20.3637 76.3866 23.425 76.391H23.4355C24.3345 76.391 25.1842 76.1723 25.9364 75.7782C26.1417 75.6718 26.3664 75.6179 26.5852 75.6179C27.0797 75.6179 27.5157 75.8741 27.7869 76.2517L27.8828 76.3851L27.8978 86.3691C27.8978 86.6658 28.1286 86.8876 28.3878 86.8876L37.6076 86.8726L37.7545 86.8501H37.8459C37.9942 86.8471 38.0886 86.7962 38.1726 86.7107C38.2535 86.6193 38.3044 86.489 38.3044 86.3496L38.2175 86.0424C37.5717 84.998 37.1956 83.7573 37.1956 82.4297C37.1956 81.0362 37.6106 79.5467 38.5352 78.1023L38.5532 78.0753L38.5711 78.0543C38.9742 77.5643 39.4447 77.1358 39.9647 76.7806L39.9767 76.7731L39.9872 76.7657C41.2234 76.0224 42.4865 75.6763 43.6838 75.6553H43.6988C44.896 75.6763 46.1577 76.0224 47.3939 76.7657L47.4059 76.7716L47.4194 76.7821C47.9393 77.1388 48.4083 77.5658 48.8114 78.0558L48.8309 78.0798L48.8474 78.1038C49.7704 79.5497 50.187 81.0377 50.1855 82.4342C50.1855 83.7588 49.8139 85.001 49.165 86.0469L49.0766 86.3511C49.0766 86.4905 49.1291 86.6208 49.21 86.7122C49.2924 86.7976 49.3898 86.8486 49.5367 86.8516H49.6251L49.6595 86.8576L49.7704 86.8741L58.9933 86.8891C59.2525 86.8891 59.4832 86.6673 59.4847 86.3706L59.5012 77.3545C59.2929 77.3815 59.0787 77.401 58.8539 77.401H58.8509C58.4703 77.398 58.1691 77.3141 57.9174 77.2721C57.5937 77.3201 57.2686 77.3545 56.9314 77.3545C55.5828 77.3545 54.1488 76.926 52.7478 75.976L52.589 75.8801C52.2923 75.6658 52.03 75.3991 51.8218 75.0874C51.2943 74.2977 50.9302 73.4931 50.6949 72.6944C50.623 72.4457 50.5691 72.1969 50.5226 71.9512C50.4357 71.4957 50.3818 71.0461 50.3818 70.6041C50.3818 68.5647 51.2614 66.7367 52.6579 65.493Z" fill="#7D7F90"/>
</svg>
