<svg width="22" height="22" viewBox="0 0 22 22" fill="none" xmlns="http://www.w3.org/2000/svg">
<g clip-path="url(#clip0_4663_692)">
<path d="M11.0008 0C6.54555 0 2.9209 3.62465 2.9209 8.07994C2.9209 10.8517 4.35162 13.4322 6.68058 14.9085V17.6797C6.68058 20.062 8.61867 22 11.0008 22C13.383 22 15.3211 20.0619 15.3211 17.6797V14.9085C17.6501 13.4322 19.0808 10.8518 19.0808 8.07994C19.0808 3.62465 15.4561 0 11.0008 0ZM8.04141 15.2037H13.9603V16.9993H8.04141V15.2037ZM9.97941 9.85627H11.982L11.441 13.8429H10.5205L9.97941 9.85627ZM11.0008 20.6392C9.60318 20.6392 8.42956 19.665 8.12125 18.3602H13.8804C13.5721 19.665 12.3985 20.6392 11.0008 20.6392ZM14.4555 13.8429H12.8143L13.5401 8.49545H8.4214L9.14722 13.8429H7.54616C5.52837 12.6305 4.28172 10.4387 4.28172 8.07994C4.28172 4.37501 7.29591 1.36082 11.0008 1.36082C14.7058 1.36082 17.72 4.37501 17.72 8.07994C17.72 10.4388 16.4734 12.6305 14.4555 13.8429Z" fill="#F9F9F9"/>
</g>
<defs>
<clipPath id="clip0_4663_692">
<rect width="22" height="22" fill="white"/>
</clipPath>
</defs>
</svg>
