<svg width="20" height="20" viewBox="0 0 20 20" fill="none" xmlns="http://www.w3.org/2000/svg">
<path d="M2.65707 4.8168H4.50912C5.70075 4.8168 6.66619 4.533 6.66619 4.18243C6.66619 3.83271 6.24872 3.33578 5.97127 2.8565C5.80823 2.57533 5.71409 2.24631 5.71409 1.89268C5.71409 0.847075 6.52657 0 7.52903 0C8.53174 0 9.34406 0.846989 9.34406 1.89268C9.34406 2.24631 9.25009 2.57533 9.08679 2.8565C8.80918 3.33578 8.39188 3.83177 8.39188 4.18243C8.39188 4.533 9.35748 4.8168 10.549 4.8168H12.9032C14.0947 4.8168 15.0603 5.82423 15.0603 7.06625V9.25936C15.0603 10.5014 15.2925 11.5087 15.5789 11.5087C15.8654 11.5087 16.3011 11.0734 16.7607 10.784C17.0303 10.6138 17.3455 10.5158 17.685 10.5158C18.6877 10.5158 19.5 11.3628 19.5 12.4085C19.5 13.4541 18.6878 14.3015 17.685 14.3015C17.3459 14.3015 17.0303 14.2035 16.7607 14.0333C16.3011 13.744 15.8654 13.3082 15.5789 13.3082C15.2924 13.3082 15.0603 14.3156 15.0603 15.5575V17.7507C15.0602 18.9927 14.0945 20 12.9032 20H10.8C9.60832 20 8.64288 19.7076 8.64288 19.3467C8.64288 18.986 9.06043 18.4812 9.33788 18.0026C9.50109 17.7215 9.59506 17.3922 9.59506 17.038C9.59506 15.9924 8.78282 15.1454 7.78012 15.1454C6.77741 15.1454 5.96509 15.9929 5.96509 17.038C5.96509 17.3917 6.05923 17.7209 6.22228 18.0026C6.49972 18.4813 6.91727 18.9865 6.91727 19.3467C6.91727 19.7076 5.95183 20 4.7602 20H2.65707C1.46544 20 0.5 18.9927 0.5 17.7506V15.5574C0.5 14.3155 0.740344 13.3082 1.03675 13.3082C1.33274 13.3082 1.77657 13.7436 2.23553 14.0333C2.50558 14.2035 2.82093 14.3015 3.16054 14.3015C4.16325 14.3015 4.97557 13.454 4.97557 12.4085C4.97557 11.3629 4.16333 10.5158 3.16054 10.5158C2.82142 10.5158 2.50566 10.6138 2.23553 10.784C1.77657 11.0733 1.33266 11.5091 1.03675 11.5091C0.739937 11.5091 0.5 10.502 0.5 9.2597V7.06659C0.5 5.82423 1.46544 4.8168 2.65707 4.8168Z" fill="#7D7F90"/>
</svg>
