<svg width="24" height="24" viewBox="0 0 24 24" fill="none" xmlns="http://www.w3.org/2000/svg">
<path d="M20.75 9.5H19.0712C18.9825 9.25125 18.8813 9.0075 18.7663 8.76875L19.955 7.58C20.4438 7.09125 20.4438 6.30125 19.955 5.8125L18.1875 4.045C17.6987 3.55625 16.9088 3.55625 16.42 4.045L15.2312 5.23375C14.9925 5.11875 14.7487 5.0175 14.5 4.92875V3.25C14.5 2.56 13.94 2 13.25 2H10.75C10.06 2 9.5 2.56 9.5 3.25V4.92875C9.25125 5.0175 9.0075 5.11875 8.76875 5.23375L7.58 4.045C7.09125 3.55625 6.30125 3.55625 5.8125 4.045L4.045 5.8125C3.55625 6.30125 3.55625 7.09125 4.045 7.58L5.23375 8.76875C5.11875 9.0075 5.0175 9.25125 4.92875 9.5H3.25C2.56 9.5 2 10.06 2 10.75V13.25C2 13.94 2.56 14.5 3.25 14.5H4.92875C5.0175 14.7487 5.11875 14.9925 5.23375 15.23L4.045 16.4187C3.55625 16.9075 3.55625 17.6975 4.045 18.1863L5.8125 19.9538C6.30125 20.4425 7.09125 20.4425 7.58 19.9538L8.76875 18.765C9.0075 18.8813 9.25125 18.9825 9.5 19.0712V20.75C9.5 21.44 10.06 22 10.75 22H13.25C13.94 22 14.5 21.44 14.5 20.75V19.0712C14.7487 18.9825 14.9925 18.8813 15.23 18.7663L16.4187 19.955C16.9075 20.4438 17.6975 20.4438 18.1863 19.955L19.9538 18.1875C20.4425 17.6987 20.4425 16.9088 19.9538 16.42L18.765 15.2312C18.88 14.9925 18.9813 14.7488 19.07 14.5013H20.75C21.44 14.5013 22 13.9413 22 13.2513V10.75C22 10.06 21.44 9.5 20.75 9.5ZM9.5 12C9.5 10.6213 10.6213 9.5 12 9.5C13.3787 9.5 14.5 10.6213 14.5 12C14.5 13.3787 13.3787 14.5 12 14.5C10.6213 14.5 9.5 13.3787 9.5 12Z" fill="#7D7F90"/>
</svg>
