<svg width="28" height="28" viewBox="0 0 28 28" fill="none" xmlns="http://www.w3.org/2000/svg">
<g clip-path="url(#clip0_4561_191)">
<path d="M11.981 18.0419H13.3271V20.51H11.981V18.0419Z" fill="#2EA6E2"/>
<path d="M7.49316 7.72146C7.49316 7.84518 7.59374 7.94577 7.71747 7.94577H9.51244C9.63616 7.94577 9.73674 7.84518 9.73674 7.72146V2.57742C9.6634 2.56691 9.58863 2.56122 9.51244 2.56122H7.71747C7.64128 2.56122 7.56651 2.56691 7.49316 2.57742V7.72146Z" fill="#2EA6E2"/>
<path d="M12.7662 15.5741H12.5419C12.2327 15.5741 11.981 15.8256 11.981 16.135C11.981 16.4442 12.2327 16.6958 12.5419 16.6958H13.3271V16.135C13.3271 15.8256 13.0756 15.5741 12.7662 15.5741Z" fill="#2EA6E2"/>
<path d="M18.2625 7.72146C18.2625 7.84518 18.363 7.94577 18.4868 7.94577H20.2817C20.4054 7.94577 20.506 7.84518 20.506 7.72146V2.57742C20.4327 2.56691 20.3579 2.56122 20.2817 2.56122H18.4868C18.4106 2.56122 18.3358 2.56691 18.2625 2.57742V7.72146Z" fill="#2EA6E2"/>
<path d="M25.6663 10.6381V7.27266C25.6663 6.15933 24.7606 5.25357 23.6471 5.25357H21.8523V7.72145C21.8523 8.58751 21.1477 9.29194 20.2818 9.29194H18.4868C17.6209 9.29194 16.9163 8.58751 16.9163 7.72145V5.25357H11.083V7.72145C11.083 8.58751 10.3784 9.29194 9.51252 9.29194H7.71756C6.85167 9.29194 6.14707 8.58751 6.14707 7.72145V5.25357H4.35228C3.23877 5.25357 2.33301 6.15933 2.33301 7.27266V10.6381H25.6663Z" fill="#2EA6E2"/>
<path d="M14.6731 18.0419H16.0193V20.51H14.6731V18.0419Z" fill="#2EA6E2"/>
<path d="M2.33301 11.9843V23.4266C2.33301 24.54 3.23877 25.4457 4.35228 25.4457H23.6471C24.7606 25.4457 25.6663 24.54 25.6663 23.4266V11.9843H2.33301ZM17.8137 18.0419H17.3651V21.1831C17.3651 21.5548 17.0637 21.856 16.692 21.856H11.3073C10.9356 21.856 10.6342 21.5548 10.6342 21.1831V18.0419H10.1856C9.81391 18.0419 9.51252 17.7405 9.51252 17.3688C9.51252 16.9971 9.81391 16.6957 10.1856 16.6957H10.7186C10.664 16.5184 10.6342 16.3301 10.6342 16.135C10.6342 15.0834 11.4898 14.2279 12.5413 14.2279H12.7656C13.236 14.2279 13.6668 14.3993 13.9997 14.6825C14.3326 14.3993 14.7634 14.2279 15.2337 14.2279H15.458C16.5096 14.2279 17.3651 15.0834 17.3651 16.135C17.3651 16.3301 17.3356 16.5184 17.2807 16.6957H17.8137C18.1854 16.6957 18.4868 16.9971 18.4868 17.3688C18.4868 17.7405 18.1854 18.0419 17.8137 18.0419Z" fill="#2EA6E2"/>
<path d="M15.4583 15.5741H15.234C14.9246 15.5741 14.6731 15.8256 14.6731 16.135V16.6958H15.4583C15.7676 16.6958 16.0193 16.4442 16.0193 16.135C16.0193 15.8256 15.7676 15.5741 15.4583 15.5741Z" fill="#2EA6E2"/>
</g>
<defs>
<clipPath id="clip0_4561_191">
<rect width="23.3333" height="23.3333" fill="white" transform="translate(2.33325 2.33334)"/>
</clipPath>
</defs>
</svg>
