<svg width="24" height="24" viewBox="0 0 24 24" fill="none" xmlns="http://www.w3.org/2000/svg">
<path fill-rule="evenodd" clip-rule="evenodd" d="M22.2954 6.31062C22.6761 6.47379 22.8524 6.9147 22.6893 7.29542L21.9999 6.99998C22.6893 7.29542 22.6894 7.29524 22.6893 7.29542L22.6886 7.2971L22.6875 7.29958L22.6843 7.30694L22.6736 7.33102C22.6646 7.35115 22.6518 7.37937 22.6352 7.41505C22.6019 7.4864 22.5533 7.58772 22.4888 7.71413C22.3599 7.96678 22.1675 8.32066 21.9084 8.73644C21.4828 9.41948 20.8724 10.2776 20.0619 11.1302L21.0303 12.0985C21.3231 12.3914 21.3231 12.8663 21.0303 13.1591C20.7374 13.452 20.2625 13.452 19.9696 13.1591L18.969 12.1586C18.3093 12.7113 17.5528 13.23 16.695 13.6562L17.6286 15.0909C17.8545 15.4381 17.7562 15.9027 17.409 16.1286C17.0618 16.3545 16.5972 16.2562 16.3713 15.909L15.2821 14.2351C14.5028 14.4896 13.659 14.6626 12.7499 14.7246V16.5C12.7499 16.9142 12.4141 17.25 11.9999 17.25C11.5857 17.25 11.2499 16.9142 11.2499 16.5V14.7246C10.3689 14.6645 9.54909 14.5002 8.78982 14.2584L7.71575 15.9091C7.48984 16.2563 7.02526 16.3546 6.67807 16.1287C6.33088 15.9028 6.23257 15.4382 6.45847 15.091L7.37089 13.6887C6.5065 13.2666 5.74381 12.7502 5.07842 12.1982L4.11744 13.1592C3.82455 13.4521 3.34968 13.4521 3.05678 13.1592C2.76389 12.8663 2.76389 12.3914 3.05678 12.0986L3.98055 11.1748C3.15599 10.3151 2.53525 9.44653 2.10277 8.75465C1.83984 8.33401 1.6446 7.97563 1.51388 7.71967C1.44848 7.5916 1.3991 7.48892 1.36537 7.41662C1.3485 7.38045 1.33553 7.35186 1.32641 7.33146L1.31562 7.30707L1.31238 7.29962L1.31129 7.29711L1.31088 7.29616C1.31081 7.29599 1.31056 7.29542 1.99992 6.99998L1.31088 7.29616C1.14772 6.91544 1.32376 6.47379 1.70448 6.31062C2.08489 6.14759 2.52539 6.32353 2.68888 6.7036C2.68882 6.70347 2.68894 6.70373 2.68888 6.7036L2.68983 6.70579L2.69591 6.7195C2.7018 6.7327 2.7114 6.75389 2.72472 6.78246C2.75139 6.83962 2.79296 6.92623 2.84976 7.03745C2.96345 7.26007 3.13762 7.58025 3.37472 7.95958C3.85033 8.72045 4.57157 9.70707 5.55561 10.6216C6.42151 11.4263 7.48259 12.1675 8.75165 12.6558C9.70614 13.023 10.7854 13.25 11.9999 13.25C13.2416 13.25 14.342 13.0127 15.3124 12.6308C16.5738 12.1343 17.6277 11.3882 18.4866 10.582C19.4562 9.67194 20.1668 8.69514 20.6354 7.94318C20.869 7.56829 21.0405 7.25225 21.1525 7.03265C21.2085 6.92293 21.2494 6.83755 21.2757 6.78122C21.2888 6.75307 21.2983 6.7322 21.3041 6.71922L21.31 6.70574L21.3106 6.70454C21.3105 6.70464 21.3106 6.70444 21.3106 6.70454M22.2954 6.31062C21.9147 6.1475 21.4738 6.32402 21.3106 6.70454L22.2954 6.31062ZM2.68888 6.7036C2.68882 6.70347 2.68894 6.70373 2.68888 6.7036V6.7036Z" fill="#F9F9F9"/>
</svg>
