<?xml version="1.0" encoding="UTF-8"?>
<svg width="29px" height="8px" viewBox="0 0 29 8" version="1.1" xmlns="http://www.w3.org/2000/svg" xmlns:xlink="http://www.w3.org/1999/xlink">
    <title>Path</title>
    <g id="Page-1" stroke="none" stroke-width="1" fill="none" fill-rule="evenodd">
        <path d="M29,7.9988 C27.943,7.9988 26.887,8.004 25.8304,7.99265 C24.8191,7.98157 23.6872,7.96587 22.703,7.59568 C21.6399,7.19563 20.9361,6.49616 20.228,5.67298 C19.7181,5.08091 18.7167,3.81769 18.2291,3.20777 C17.83,2.70771 17.0488,1.71928 16.6222,1.24107 C16.0853,0.63946 15.4216,0 14.4997,0 C13.5778,0 12.9144,0.63946 12.3778,1.24046 C11.9512,1.71836 11.17,2.7074 10.7706,3.20715 C10.2836,3.81707 9.2822,5.0803 8.772,5.67237 C8.0627,6.49554 7.3601,7.19501 6.2973,7.59506 C5.3128,7.96433 4.1806,7.98095 3.1699,7.99203 C2.113,8.0034 1.0566,7.99818 0,7.99818" id="Path" fill="#252525" fill-rule="nonzero"></path>
    </g>
</svg>