<svg width="39" height="39" viewBox="0 0 39 39" fill="none" xmlns="http://www.w3.org/2000/svg">
<circle cx="20" cy="20" r="16" fill="white"/>
<path d="M19.4995 1.21869C15.8838 1.21869 12.3493 2.29087 9.343 4.29964C6.33667 6.3084 3.99351 9.16355 2.60985 12.504C1.22618 15.8445 0.864153 19.5202 1.56954 23.0664C2.27493 26.6126 4.01605 29.8701 6.57272 32.4267C9.1294 34.9834 12.3868 36.7245 15.933 37.4299C19.4792 38.1353 23.155 37.7733 26.4955 36.3896C29.8359 35.0059 32.6911 32.6628 34.6998 29.6565C36.7086 26.6501 37.7808 23.1156 37.7808 19.4999C37.7749 14.6533 35.8469 10.0068 32.4198 6.57966C28.9927 3.15254 24.3462 1.22459 19.4995 1.21869ZM28.2258 12.6262V14.8931H27.1472V13.8388C27.1472 13.7087 27.0955 13.584 27.0035 13.492C26.9115 13.4 26.7867 13.3483 26.6566 13.3483C26.5265 13.3483 26.4018 13.4 26.3098 13.492C26.2178 13.584 26.1661 13.7087 26.1661 13.8388V14.8931H25.0875V13.266C25.0854 13.1373 25.0327 13.0146 24.941 12.9244C24.8492 12.8341 24.7257 12.7835 24.5969 12.7835C24.4682 12.7835 24.3447 12.8341 24.2529 12.9244C24.1611 13.0146 24.1085 13.1373 24.1064 13.266V14.8931H23.0278V14.2959C23.025 14.1676 22.9721 14.0456 22.8804 13.9558C22.7887 13.8661 22.6655 13.8159 22.5373 13.8159C22.409 13.8159 22.2858 13.8661 22.1941 13.9558C22.1024 14.0456 22.0495 14.1676 22.0467 14.2959V14.8931H21.5105C21.446 14.8926 21.3821 14.9049 21.3225 14.9292C21.2628 14.9534 21.2085 14.9892 21.1626 15.0345C21.1168 15.0798 21.0803 15.1336 21.0553 15.193C21.0303 15.2524 21.0172 15.3161 21.0169 15.3806V15.9229H19.207C20.0716 14.3896 21.4549 13.2151 23.1082 12.6107C24.7615 12.0064 26.5762 12.0119 28.2258 12.6262ZM29.2556 15.8742V23.1318H21.998V15.8742H29.2556ZM19.7981 30.3103C19.6823 34.1737 14.0761 34.1798 13.9542 30.3103C13.9968 29.9203 14.003 29.4388 13.4911 29.4267C12.9522 29.7117 12.3491 29.8537 11.7396 29.8391C11.1301 29.8245 10.5346 29.6537 10.0099 29.3431C9.48533 29.0324 9.04919 28.5924 8.74327 28.065C8.43734 27.5377 8.27185 26.9406 8.26265 26.331C8.26018 25.5362 8.53371 24.7651 9.03655 24.1495C9.08537 24.087 9.11867 24.0139 9.13372 23.9361C9.14877 23.8583 9.14515 23.778 9.12314 23.7019C9.10113 23.6257 9.06137 23.5559 9.00712 23.4981C8.95287 23.4403 8.88568 23.3962 8.81108 23.3695C8.02213 23.1112 7.33119 22.6175 6.83118 21.9548C6.33117 21.2921 6.04607 20.4922 6.01422 19.6627C5.98236 18.8331 6.20528 18.0137 6.653 17.3146C7.10072 16.6155 7.75176 16.0703 8.51858 15.7523C8.90837 16.1316 9.40089 16.3881 9.93509 16.4902C10.4693 16.5922 11.0217 16.5352 11.5238 16.3263C12.026 16.1174 12.4558 15.7658 12.76 15.3149C13.0642 14.8641 13.2294 14.3339 13.2351 13.7901C13.2351 13.66 13.1835 13.5352 13.0915 13.4432C12.9995 13.3512 12.8747 13.2995 12.7446 13.2995C12.6145 13.2995 12.4897 13.3512 12.3977 13.4432C12.3057 13.5352 12.2541 13.66 12.2541 13.7901C12.2524 14.2631 12.0637 14.7163 11.7292 15.0507C11.3948 15.3852 10.9416 15.5739 10.4686 15.5756C9.02436 15.5573 8.26874 13.9424 8.26265 12.6749C8.26787 12.0859 8.42121 11.5076 8.70855 10.9934C8.99589 10.4792 9.40798 10.0455 9.9069 9.73231C10.4058 9.41912 10.9755 9.23649 11.5635 9.20124C12.1515 9.16598 12.7389 9.27923 13.2717 9.53056C13.3511 9.56903 13.4395 9.58538 13.5274 9.57787C13.6153 9.57036 13.6996 9.53928 13.7714 9.48791C14.0578 9.31119 13.9542 8.96385 13.9542 8.68963C13.9592 7.91795 14.2692 7.17957 14.8167 6.63566C15.3641 6.09175 16.1045 5.78648 16.8762 5.78648C17.6479 5.78648 18.3882 6.09175 18.9357 6.63566C19.4831 7.17957 19.7931 7.91795 19.7981 8.68963V13.5524C19.0105 14.3304 18.3852 15.257 17.9584 16.2785C17.5316 17.2999 17.3119 18.3959 17.3119 19.503C17.3119 20.61 17.5316 21.7061 17.9584 22.7275C18.3852 23.749 19.0105 24.6756 19.7981 25.4535V30.3103ZM22.0467 25.9228C20.9027 25.2849 19.9494 24.3535 19.2853 23.2245C18.6212 22.0955 18.2702 20.8098 18.2686 19.4999C18.2654 18.6104 18.4351 17.7288 18.7683 16.904H21.0169V17.9826H19.9626C19.8336 17.9842 19.7103 18.0365 19.6196 18.1284C19.5289 18.2202 19.4781 18.3441 19.4781 18.4731C19.4781 18.6022 19.5289 18.7261 19.6196 18.8179C19.7103 18.9097 19.8336 18.9621 19.9626 18.9637H21.0169V20.0423H19.3959C19.2669 20.0439 19.1436 20.0962 19.0529 20.1881C18.9622 20.2799 18.9113 20.4038 18.9113 20.5328C18.9113 20.6619 18.9622 20.7858 19.0529 20.8776C19.1436 20.9694 19.2669 21.0218 19.3959 21.0234H21.0169V22.102H20.4258C20.2957 22.102 20.1709 22.1537 20.0789 22.2456C19.9869 22.3376 19.9352 22.4624 19.9352 22.5925C19.9352 22.7226 19.9869 22.8474 20.0789 22.9394C20.1709 23.0314 20.2957 23.0831 20.4258 23.0831H21.0169V23.6193C21.0166 23.6842 21.0292 23.7485 21.0539 23.8085C21.0786 23.8685 21.1149 23.923 21.1608 23.9689C21.2067 24.0148 21.2612 24.0512 21.3213 24.0759C21.3813 24.1006 21.4456 24.1132 21.5105 24.1129H22.0467V25.9228ZM23.0278 26.3798V24.1129H24.1064V25.1671C24.1064 25.2972 24.1581 25.422 24.2501 25.514C24.3421 25.606 24.4668 25.6577 24.5969 25.6577C24.727 25.6577 24.8518 25.606 24.9438 25.514C25.0358 25.422 25.0875 25.2972 25.0875 25.1671V24.1129H26.1661V25.7338C26.1677 25.8629 26.22 25.9862 26.3119 26.0769C26.4037 26.1676 26.5276 26.2184 26.6566 26.2184C26.7857 26.2184 26.9096 26.1676 27.0014 26.0769C27.0932 25.9862 27.1456 25.8629 27.1472 25.7338V24.1129H28.2258V24.704C28.2258 24.8341 28.2775 24.9589 28.3694 25.0509C28.4614 25.1429 28.5862 25.1945 28.7163 25.1945C28.8464 25.1945 28.9712 25.1429 29.0632 25.0509C29.1552 24.9589 29.2069 24.8341 29.2069 24.704V24.1129H29.7492C29.8136 24.1125 29.8774 24.0995 29.9367 24.0745C29.9961 24.0495 30.05 24.013 30.0953 23.9672C30.1405 23.9213 30.1763 23.867 30.2006 23.8073C30.2249 23.7476 30.2371 23.6837 30.2367 23.6193V23.0831H32.0466C31.181 24.6154 29.7976 25.789 28.1446 26.3932C26.4917 26.9974 24.6775 26.9927 23.0278 26.3798ZM30.2367 22.102V21.0234H31.2909C31.42 21.0218 31.5432 20.9694 31.6339 20.8776C31.7247 20.7858 31.7755 20.6619 31.7755 20.5328C31.7755 20.4038 31.7247 20.2799 31.6339 20.1881C31.5432 20.0962 31.42 20.0439 31.2909 20.0423H30.2367V18.9637H31.8637C31.992 18.9609 32.1141 18.908 32.2038 18.8163C32.2935 18.7246 32.3437 18.6014 32.3437 18.4731C32.3437 18.3449 32.2935 18.2217 32.2038 18.13C32.1141 18.0383 31.992 17.9854 31.8637 17.9826H30.2367V16.904H30.8339C30.9622 16.9012 31.0842 16.8483 31.1739 16.7566C31.2637 16.6649 31.3139 16.5417 31.3139 16.4135C31.3139 16.2852 31.2637 16.162 31.1739 16.0703C31.0842 15.9786 30.9622 15.9257 30.8339 15.9229H30.2367V15.3806C30.2363 15.2514 30.1849 15.1276 30.0935 15.0363C30.0022 14.9449 29.8784 14.8934 29.7492 14.8931H29.2069V13.0832C30.7402 13.9478 31.9147 15.3311 32.519 16.9844C33.1234 18.6377 33.1179 20.4524 32.5036 22.102H30.2367Z" fill="#2EA6E2"/>
<path d="M23.9061 21.4622V19.9936H25.3808V21.4622C25.3804 21.5267 25.3927 21.5905 25.4169 21.6502C25.4412 21.7099 25.477 21.7642 25.5223 21.8101C25.5675 21.8559 25.6214 21.8924 25.6808 21.9174C25.7402 21.9424 25.8039 21.9555 25.8683 21.9558C25.9991 21.9553 26.1244 21.9032 26.2168 21.8107C26.3093 21.7183 26.3614 21.593 26.3619 21.4622V18.5189C26.3603 18.1289 26.2043 17.7553 25.9279 17.4801C25.6515 17.2049 25.2773 17.0503 24.8872 17.0504H24.3997C24.01 17.0514 23.6364 17.2062 23.3602 17.4812C23.0841 17.7563 22.9277 18.1292 22.925 18.5189V21.4622C22.9265 21.5914 22.9788 21.7148 23.0706 21.8056C23.1625 21.8964 23.2864 21.9473 23.4156 21.9473C23.5448 21.9473 23.6687 21.8964 23.7605 21.8056C23.8524 21.7148 23.9047 21.5914 23.9061 21.4622ZM23.9061 18.5189C23.9065 18.4545 23.9196 18.3908 23.9446 18.3314C23.9696 18.272 24.0061 18.2182 24.0519 18.1729C24.0977 18.1276 24.1521 18.0918 24.2117 18.0676C24.2714 18.0433 24.3353 18.031 24.3997 18.0314H24.8872C25.017 18.0316 25.1416 18.0828 25.234 18.174C25.3263 18.2653 25.3791 18.3891 25.3808 18.5189V19.0125H23.9061V18.5189Z" fill="#2EA6E2"/>
<path d="M28.0434 21.4622V17.5378C28.0412 17.4092 27.9886 17.2865 27.8968 17.1963C27.805 17.106 27.6815 17.0555 27.5528 17.0555C27.4241 17.0555 27.3006 17.106 27.2088 17.1963C27.1171 17.2865 27.0644 17.4092 27.0623 17.5378V21.4622C27.0639 21.5912 27.1163 21.7144 27.2081 21.8051C27.2999 21.8957 27.4238 21.9466 27.5528 21.9466C27.6819 21.9466 27.8057 21.8957 27.8975 21.8051C27.9893 21.7144 28.0417 21.5912 28.0434 21.4622Z" fill="#2EA6E2"/>
</svg>
