<svg width="24" height="24" viewBox="0 0 24 24" fill="none" xmlns="http://www.w3.org/2000/svg">
<path fill-rule="evenodd" clip-rule="evenodd" d="M18.6731 3.66727C18.0356 3.78073 17.1965 4.05841 15.9723 4.46649L11.9723 5.79982C11.2959 6.02529 10.8487 6.17556 10.5192 6.32882C10.2072 6.47394 10.0724 6.59074 9.98595 6.71064C9.89953 6.83054 9.83138 6.99543 9.79235 7.33727C9.75113 7.69828 9.75 8.17005 9.75 8.88305V10.9594L20.25 7.45944C20.2499 6.21785 20.2459 5.36032 20.1541 4.73469C20.0627 4.11146 19.906 3.88706 19.7309 3.76081C19.5557 3.63456 19.2933 3.55689 18.6731 3.66727ZM21.7402 6.00001C21.7279 5.43551 21.7003 4.94044 21.6382 4.51704C21.522 3.72438 21.2634 3.01634 20.608 2.54394C19.9525 2.07154 19.1991 2.05009 18.4103 2.19048C17.6516 2.32551 16.7078 2.64014 15.5559 3.02414L11.4584 4.38996C10.8321 4.59873 10.3027 4.77515 9.88651 4.96878C9.44407 5.1746 9.06018 5.4297 8.76908 5.83357C8.47799 6.23745 8.35738 6.68231 8.30203 7.16713C8.27376 7.41472 8.26085 7.69232 8.25495 8.00001H8.25V8.75919C8.25 8.78643 8.25 8.81385 8.25 8.84144L8.25 15.9997C7.62325 15.529 6.8442 15.25 6 15.25C3.92893 15.25 2.25 16.9289 2.25 19C2.25 21.0711 3.92893 22.75 6 22.75C8.07107 22.75 9.75 21.0711 9.75 19V12.5406L20.25 9.04058V13.9997C19.6233 13.529 18.8442 13.25 18 13.25C15.9289 13.25 14.25 14.9289 14.25 17C14.25 19.0711 15.9289 20.75 18 20.75C20.0711 20.75 21.75 19.0711 21.75 17V7.48859C21.75 7.4529 21.75 7.4174 21.75 7.3821V6.00001H21.7402ZM20.25 17C20.25 15.7574 19.2426 14.75 18 14.75C16.7574 14.75 15.75 15.7574 15.75 17C15.75 18.2426 16.7574 19.25 18 19.25C19.2426 19.25 20.25 18.2426 20.25 17ZM8.25 19C8.25 17.7574 7.24264 16.75 6 16.75C4.75736 16.75 3.75 17.7574 3.75 19C3.75 20.2426 4.75736 21.25 6 21.25C7.24264 21.25 8.25 20.2426 8.25 19Z" fill="#F9F9F9"/>
<path d="M3.5 3.5L22 22" stroke="#32A4DC" stroke-width="2" stroke-linecap="round"/>
</svg>
