<svg width="24" height="24" viewBox="0 0 24 24" fill="none" xmlns="http://www.w3.org/2000/svg">
<g clip-path="url(#clip0_4938_3179)">
<path d="M6.55919 22.1641H16.8065C18.6737 22.1641 19.6118 21.235 19.6118 19.3946V10.6571C19.6118 8.81666 18.6737 7.88752 16.8065 7.88752H12.5718V14.4987C12.5718 14.9722 12.1608 15.3653 11.6784 15.3653C11.196 15.3653 10.7939 14.9722 10.7939 14.4987V7.88752H6.55919C4.69198 7.88752 3.75391 8.81666 3.75391 10.6571V19.3946C3.75391 21.235 4.69198 22.1641 6.55919 22.1641ZM11.6784 8.59331C12.0625 8.59331 12.3931 8.27169 12.3931 7.89645V5.29666L12.3395 3.95655L12.9381 4.59087L14.296 6.03818C14.4212 6.18112 14.5998 6.2526 14.7785 6.2526C15.1448 6.2526 15.4307 5.98458 15.4307 5.61828C15.4307 5.43067 15.3503 5.28772 15.2163 5.15371L12.1966 2.24122C12.0179 2.06254 11.866 2 11.6784 2C11.4997 2 11.3478 2.06254 11.1602 2.24122L8.14051 5.15371C8.0065 5.28772 7.93503 5.43067 7.93503 5.61828C7.93503 5.98458 8.20305 6.2526 8.57828 6.2526C8.74802 6.2526 8.94458 6.18112 9.06965 6.03818L10.4187 4.59087L11.0262 3.95655L10.9726 5.29666V7.89645C10.9726 8.27169 11.2942 8.59331 11.6784 8.59331Z" fill="#F9F9F9"/>
</g>
<defs>
<clipPath id="clip0_4938_3179">
<rect width="16.1884" height="21.4863" fill="white" transform="translate(3.75391 2)"/>
</clipPath>
</defs>
</svg>
