<svg width="29" height="28" viewBox="0 0 29 28" fill="none" xmlns="http://www.w3.org/2000/svg">
<path d="M7.6826 6.78627H9.84332C11.2336 6.78627 12.3599 6.45517 12.3599 6.04617C12.3599 5.63816 11.8729 5.05841 11.5492 4.49925C11.3589 4.17122 11.2491 3.78736 11.2491 3.37479C11.2491 2.15492 12.197 1.16666 13.3666 1.16666C14.5364 1.16666 15.4841 2.15482 15.4841 3.37479C15.4841 3.78736 15.3744 4.17122 15.1839 4.49925C14.8601 5.05841 14.3732 5.63707 14.3732 6.04617C14.3732 6.45517 15.4997 6.78627 16.8898 6.78627H19.6365C21.0265 6.78627 22.1531 7.9616 22.1531 9.41062V11.9693C22.1531 13.4183 22.424 14.5935 22.7581 14.5935C23.0923 14.5935 23.6006 14.0856 24.1368 13.748C24.4513 13.5494 24.8191 13.4351 25.2152 13.4351C26.385 13.4351 27.3327 14.4233 27.3327 15.6432C27.3327 16.8631 26.3851 17.8518 25.2152 17.8518C24.8195 17.8518 24.4513 17.7374 24.1368 17.5389C23.6006 17.2013 23.0923 16.6929 22.7581 16.6929C22.4239 16.6929 22.1531 17.8682 22.1531 19.3171V21.8758C22.153 23.3248 21.0263 24.5 19.6364 24.5H17.1826C15.7924 24.5 14.666 24.1589 14.666 23.7378C14.666 23.317 15.1532 22.7281 15.4769 22.1697C15.6673 21.8417 15.7769 21.4575 15.7769 21.0444C15.7769 19.8245 14.8293 18.8363 13.6595 18.8363C12.4897 18.8363 11.542 19.825 11.542 21.0444C11.542 21.4569 11.6518 21.8411 11.842 22.1697C12.1657 22.7282 12.6528 23.3175 12.6528 23.7378C12.6528 24.1589 11.5265 24.5 10.1362 24.5H7.6826C6.29237 24.5 5.16602 23.3248 5.16602 21.8757V19.317C5.16602 17.8681 5.44642 16.6929 5.79222 16.6929C6.13755 16.6929 6.65535 17.2008 7.19081 17.5389C7.50585 17.7374 7.87377 17.8518 8.26998 17.8518C9.4398 17.8518 10.3875 16.863 10.3875 15.6432C10.3875 14.4234 9.4399 13.4351 8.26998 13.4351C7.87434 13.4351 7.50595 13.5494 7.19081 13.748C6.65535 14.0855 6.13745 14.594 5.79222 14.594C5.44594 14.594 5.16602 13.419 5.16602 11.9697V9.41102C5.16602 7.9616 6.29237 6.78627 7.6826 6.78627Z" fill="#2EA6E2"/>
</svg>
