<svg width="26" height="24" viewBox="0 0 26 24" fill="none" xmlns="http://www.w3.org/2000/svg">
<path fill-rule="evenodd" clip-rule="evenodd" d="M2.41988 11.067C2.5035 5.27963 7.25621 0.625 13.0927 0.625C16.9525 0.625 20.3355 2.65999 22.2096 5.70841C22.4627 6.12009 22.3341 6.65898 21.9225 6.91207C21.5108 7.16516 20.9719 7.0366 20.7188 6.62492C19.1521 4.07652 16.3238 2.375 13.0927 2.375C8.2109 2.375 4.25499 6.25732 4.17015 11.0645L4.63726 10.6011C4.98031 10.2607 5.53432 10.2629 5.87469 10.6059C6.21505 10.949 6.21288 11.503 5.86983 11.8434L3.91005 13.7878C3.5689 14.1263 3.01863 14.1263 2.67748 13.7878L0.717701 11.8434C0.374653 11.503 0.372477 10.949 0.71284 10.6059C1.0532 10.2629 1.60722 10.2607 1.95027 10.6011L2.41988 11.067ZM22.0848 10.211C22.4257 9.87411 22.9741 9.87411 23.315 10.211L25.2823 12.1555C25.626 12.4952 25.6292 13.0492 25.2895 13.3929C24.9498 13.7366 24.3958 13.7398 24.0521 13.4001L23.5739 12.9274C23.4929 18.7204 18.7193 23.375 12.8636 23.375C8.99174 23.375 5.59676 21.3415 3.71538 18.2929C3.46159 17.8816 3.58923 17.3425 4.00048 17.0887C4.41172 16.8349 4.95084 16.9626 5.20462 17.3738C6.77718 19.922 9.61731 21.625 12.8636 21.625C17.7708 21.625 21.7415 17.7366 21.8236 12.9297L21.3477 13.4001C21.004 13.7398 20.45 13.7366 20.1103 13.3929C19.7706 13.0492 19.7738 12.4952 20.1175 12.1555L22.0848 10.211Z" fill="#2EA6E2"/>
</svg>
