<svg width="38" height="39" viewBox="0 0 38 39" fill="none" xmlns="http://www.w3.org/2000/svg">
<path fill-rule="evenodd" clip-rule="evenodd" d="M6.62508 16.4335V12.6667C6.62508 5.83216 12.1656 0.291687 19.0001 0.291687C25.8346 0.291687 31.3751 5.83216 31.3751 12.6667V16.4335C33.4188 16.5861 34.7497 16.9714 35.7225 17.9443C37.3334 19.5552 37.3334 22.1479 37.3334 27.3334C37.3334 32.5188 37.3334 35.1115 35.7225 36.7224C34.1116 38.3334 31.5189 38.3334 26.3334 38.3334H11.6667C6.4813 38.3334 3.88857 38.3334 2.27766 36.7224C0.666748 35.1115 0.666748 32.5188 0.666748 27.3334C0.666748 22.1479 0.666748 19.5552 2.27766 17.9443C3.25048 16.9714 4.58136 16.5861 6.62508 16.4335ZM9.37508 12.6667C9.37508 7.35095 13.6843 3.04169 19.0001 3.04169C24.3158 3.04169 28.6251 7.35095 28.6251 12.6667V16.3399C27.9229 16.3334 27.1612 16.3334 26.3334 16.3334H11.6667C10.839 16.3334 10.0773 16.3334 9.37508 16.3399V12.6667ZM22.6667 27.3334C22.6667 29.3584 21.0251 31 19.0001 31C16.975 31 15.3334 29.3584 15.3334 27.3334C15.3334 25.3083 16.975 23.6667 19.0001 23.6667C21.0251 23.6667 22.6667 25.3083 22.6667 27.3334Z" fill="#F9F9F9"/>
</svg>
