<svg width="20" height="18" viewBox="0 0 20 18" fill="none" xmlns="http://www.w3.org/2000/svg">
<path fill-rule="evenodd" clip-rule="evenodd" d="M0 13.1436V1.9978C0 0.899632 0.8863 0.00752202 1.9824 0.0748885C2.95877 0.134896 4.11349 0.25351 5 0.487444C6.04921 0.76431 7.29611 1.35401 8.28225 1.87546C8.58936 2.03785 8.91594 2.15048 9.25018 2.21397V17.3926C8.94717 17.3258 8.65156 17.218 8.37242 17.0692C7.37293 16.5365 6.08145 15.9187 5 15.6334C4.12329 15.402 2.98428 15.2835 2.01486 15.2228C0.906046 15.1535 0 14.2546 0 13.1436ZM3.18208 5.27239C2.78023 5.17193 2.37303 5.41625 2.27257 5.8181C2.17211 6.21994 2.41643 6.62715 2.81828 6.72761L6.81828 7.72761C7.22012 7.82807 7.62732 7.58375 7.72778 7.1819C7.82825 6.78006 7.58393 6.37285 7.18208 6.27239L3.18208 5.27239ZM3.18208 9.27239C2.78023 9.17193 2.37303 9.41625 2.27257 9.8181C2.17211 10.2199 2.41643 10.6271 2.81828 10.7276L6.81828 11.7276C7.22012 11.8281 7.62732 11.5837 7.72778 11.1819C7.82825 10.7801 7.58393 10.3729 7.18208 10.2724L3.18208 9.27239Z" fill="#2EA6E2"/>
<path fill-rule="evenodd" clip-rule="evenodd" d="M10.7502 17.3925C11.0531 17.3257 11.3485 17.218 11.6276 17.0692C12.6271 16.5365 13.9185 15.9187 15 15.6334C15.8767 15.402 17.0157 15.2835 17.9851 15.2228C19.094 15.1535 20 14.2546 20 13.1436V1.93319C20 0.860746 19.1538 -0.0195874 18.082 0.0177469C16.9534 0.0570592 15.5469 0.174028 14.5 0.487444C13.5924 0.759163 12.5353 1.30418 11.6738 1.80275C11.3824 1.97142 11.0709 2.0953 10.7502 2.17387V17.3925ZM17.1821 6.72761C17.5839 6.62715 17.8282 6.21994 17.7278 5.8181C17.6273 5.41625 17.2201 5.17193 16.8183 5.27239L12.8183 6.27239C12.4164 6.37285 12.1721 6.78006 12.2726 7.1819C12.373 7.58375 12.7802 7.82807 13.1821 7.72761L17.1821 6.72761ZM17.1821 10.7276C17.5839 10.6271 17.8282 10.2199 17.7278 9.8181C17.6273 9.41625 17.2201 9.17193 16.8183 9.27239L12.8183 10.2724C12.4164 10.3729 12.1721 10.7801 12.2726 11.1819C12.373 11.5837 12.7802 11.8281 13.1821 11.7276L17.1821 10.7276Z" fill="#2EA6E2"/>
</svg>
